<svg xmlns="http://www.w3.org/2000/svg" version="1.1" xmlns:xlink="http://www.w3.org/1999/xlink" xmlns:svgjs="http://svgjs.dev/svgjs" width="2000" height="358" viewBox="0 0 2000 358"><g transform="matrix(1,0,0,1,-1.2121212121212466,-0.26571388703385423)"><svg viewBox="0 0 396 71" data-background-color="#ffffff" preserveAspectRatio="xMidYMid meet" height="358" width="2000" xmlns="http://www.w3.org/2000/svg" xmlns:xlink="http://www.w3.org/1999/xlink"><g id="tight-bounds" transform="matrix(1,0,0,1,0.2400000000000091,0.05269744686984268)"><svg viewBox="0 0 395.52 70.89460510626034" height="70.89460510626034" width="395.52"><g><svg viewBox="0 0 508.579241212427 91.15980094811017" height="70.89460510626034" width="395.52"><g><rect width="5.948541914916898" height="79.15467520819985" x="91.53860004380097" y="6.002562869955163" fill="#000000" opacity="1" stroke-width="0" stroke="transparent" fill-opacity="1" class="rect-qz-0" data-fill-palette-color="primary" rx="1%" id="qz-0" data-palette-color="#2a3240"></rect></g><g transform="matrix(1,0,0,1,113.05924121242703,12.598785803971815)"><svg viewBox="0 0 395.52 65.96222934016654" height="65.96222934016654" width="395.52"><g id="textblocktransform"><svg viewBox="0 0 395.52 65.96222934016654" height="65.96222934016654" width="395.52" id="textblock"><g><svg viewBox="0 0 395.52 65.96222934016654" height="65.96222934016654" width="395.52"><g transform="matrix(1,0,0,1,0,0)"><svg width="395.52" viewBox="0.85 -38.45 234.13 39.050000000000004" height="65.96222934016654" data-palette-color="#2a3240"><path d="M21.1-37.2L21.1-37.2Q22.95-37.2 25.18-36.83 27.4-36.45 29.45-35.58 31.5-34.7 32.75-33.25L32.75-33.25 28.75-29.15Q27.35-30.4 26.18-31.13 25-31.85 23.7-32.18 22.4-32.5 20.45-32.5L20.45-32.5Q17.05-32.5 14.68-30.95 12.3-29.4 10.8-26.85 9.3-24.3 8.6-21.3 7.9-18.3 7.9-15.4L7.9-15.4Q7.9-13.5 8.28-11.55 8.65-9.6 9.55-7.95 10.45-6.3 11.98-5.28 13.5-4.25 15.8-4.25L15.8-4.25Q18.15-4.25 19.98-5.35 21.8-6.45 22.93-8.22 24.05-10 24.3-12L24.3-12 24.7-15.1 17.5-15.1 18.05-19.5 31.9-19.5Q31.2-14.65 30.53-9.75 29.85-4.85 29.45 0.05L29.45 0.05 26.05 0.05 25-3.75Q22.45-1.6 19.95-0.53 17.45 0.55 14.05 0.55L14.05 0.55Q9.55 0.55 6.63-1.38 3.7-3.3 2.27-6.65 0.85-10 0.85-14.2L0.85-14.2Q0.85-18.75 2.18-22.9 3.5-27.05 6.08-30.28 8.65-33.5 12.43-35.35 16.2-37.2 21.1-37.2ZM36.65-24.85L43-24.85 40.85-8.45Q40.8-8.1 40.77-7.78 40.75-7.45 40.75-7.1L40.75-7.1Q40.75-5.85 41.27-5.03 41.8-4.2 43.2-4.2L43.2-4.2Q44.85-4.2 46.02-5.38 47.2-6.55 47.97-8.35 48.75-10.15 49.2-12.05 49.65-13.95 49.85-15.35L49.85-15.35 50.8-22.65 50.5-24.85 56.9-24.85 54.2-6.5Q54.15-6.25 54.12-5.98 54.1-5.7 54.1-5.45L54.1-5.45Q54.1-4.8 54.32-4.23 54.55-3.65 55.35-3.65L55.35-3.65Q55.85-3.65 56.55-3.85 57.25-4.05 57.75-4.25L57.75-4.25 58.6-1.1Q57.9-0.65 56.95-0.3 56 0.05 55.02 0.25 54.05 0.45 53.2 0.45L53.2 0.45Q52.2 0.45 51.32 0 50.45-0.45 49.87-1.23 49.3-2 49.1-2.95L49.1-2.95 48.9-2.95Q48.05-1.8 46.72-1.03 45.4-0.25 43.92 0.15 42.45 0.55 41.05 0.55L41.05 0.55Q38 0.55 36.37-0.98 34.75-2.5 34.75-5.55L34.75-5.55Q34.75-6.4 34.9-7.3L34.9-7.3 36.9-22.65 36.65-24.85ZM76.3-20.35L79.4-25 82.55-25Q81.8-19.9 81.27-16.55 80.75-13.2 80.45-11.18 80.15-9.15 80-8.05 79.84-6.95 79.8-6.4 79.75-5.85 79.75-5.45L79.75-5.45Q79.75-4.8 80-4.23 80.25-3.65 81-3.65L81-3.65Q81.5-3.65 82.2-3.85 82.9-4.05 83.4-4.25L83.4-4.25 84.25-1.1Q83.15-0.4 81.7 0.03 80.25 0.45 78.95 0.45L78.95 0.45Q77.45 0.45 76.3-0.53 75.15-1.5 74.84-2.95L74.84-2.95 74.65-2.95Q73.2-1 71.22-0.2 69.25 0.6 67.65 0.6L67.65 0.6Q64.75 0.6 62.92-0.88 61.1-2.35 60.25-4.78 59.4-7.2 59.4-10.05L59.4-10.05Q59.4-12.8 60.17-15.53 60.95-18.25 62.52-20.5 64.09-22.75 66.47-24.1 68.84-25.45 72.05-25.45L72.05-25.45Q73.34-25.45 75.32-24.8 77.3-24.15 78.65-22.5L78.65-22.5 78.65-18.25Q75.25-21.35 72.34-21.35L72.34-21.35Q70.75-21.35 69.45-20.58 68.15-19.8 67.2-18.32 66.25-16.85 65.75-14.8 65.25-12.75 65.25-10.2L65.25-10.2Q65.25-7.5 66.05-5.5 66.84-3.5 68.8-3.5L68.8-3.5Q70.4-3.5 71.55-4.63 72.7-5.75 73.5-7.65 74.3-9.55 74.84-11.9 75.4-14.25 75.75-16.7L75.75-16.7 76.3-20.35ZM87.19-24.85L93.29-25.35Q93.59-24.3 93.72-22.75 93.84-21.2 93.74-20.1L93.74-20.1Q94.69-21.4 96.04-22.6 97.39-23.8 99.02-24.58 100.64-25.35 102.29-25.35L102.29-25.35 100.54-19.05Q98.44-19.05 96.62-17.88 94.79-16.7 93.09-14.45L93.09-14.45 91.09 0 85.39 0 87.79-18.15Q87.89-18.65 87.94-19.33 87.99-20 87.99-20.65L87.99-20.65Q87.99-21.65 87.87-22.83 87.74-24 87.19-24.85L87.19-24.85ZM117.44-16.7L120.04-35.7 119.79-38.45 126.14-38.45Q125.19-31.95 124.34-26.18 123.49-20.4 122.84-15.9 122.19-11.4 121.82-8.6 121.44-5.8 121.44-5.2L121.44-5.2Q121.44-4.75 121.69-4.2 121.94-3.65 122.69-3.65L122.69-3.65Q123.19-3.65 123.89-3.85 124.59-4.05 125.09-4.25L125.09-4.25 125.94-1.1Q124.84-0.4 123.39 0.03 121.94 0.45 120.64 0.45L120.64 0.45Q119.14 0.45 117.99-0.53 116.84-1.5 116.54-2.95L116.54-2.95 116.34-2.95Q114.89-1 112.92-0.2 110.94 0.6 109.34 0.6L109.34 0.6Q106.44 0.6 104.62-0.88 102.79-2.35 101.94-4.78 101.09-7.2 101.09-10.05L101.09-10.05Q101.09-12.8 101.87-15.53 102.64-18.25 104.22-20.5 105.79-22.75 108.17-24.1 110.54-25.45 113.74-25.45L113.74-25.45Q115.04-25.45 117.02-24.8 118.99-24.15 120.34-22.5L120.34-22.5 120.34-18.25Q116.94-21.35 114.04-21.35L114.04-21.35Q112.44-21.35 111.14-20.58 109.84-19.8 108.89-18.32 107.94-16.85 107.44-14.8 106.94-12.75 106.94-10.2L106.94-10.2Q106.94-7.5 107.74-5.5 108.54-3.5 110.49-3.5L110.49-3.5Q112.09-3.5 113.24-4.63 114.39-5.75 115.22-7.65 116.04-9.55 116.57-11.9 117.09-14.25 117.44-16.7L117.44-16.7ZM158.69-37.2L158.69-37.2Q160.54-37.2 162.76-36.83 164.99-36.45 167.04-35.58 169.09-34.7 170.34-33.25L170.34-33.25 166.34-29.15Q164.94-30.4 163.76-31.13 162.59-31.85 161.29-32.18 159.99-32.5 158.04-32.5L158.04-32.5Q154.64-32.5 152.26-30.95 149.89-29.4 148.39-26.85 146.89-24.3 146.19-21.3 145.49-18.3 145.49-15.4L145.49-15.4Q145.49-13.5 145.86-11.55 146.24-9.6 147.14-7.95 148.03-6.3 149.56-5.28 151.09-4.25 153.39-4.25L153.39-4.25Q155.74-4.25 157.56-5.35 159.39-6.45 160.51-8.22 161.64-10 161.89-12L161.89-12 162.29-15.1 155.09-15.1 155.64-19.5 169.49-19.5Q168.79-14.65 168.11-9.75 167.44-4.85 167.04 0.05L167.04 0.05 163.64 0.05 162.59-3.75Q160.04-1.6 157.54-0.53 155.03 0.55 151.64 0.55L151.64 0.55Q147.14 0.55 144.21-1.38 141.28-3.3 139.86-6.65 138.44-10 138.44-14.2L138.44-14.2Q138.44-18.75 139.76-22.9 141.09-27.05 143.66-30.28 146.24-33.5 150.01-35.35 153.78-37.2 158.69-37.2ZM188.93-20.35L192.03-25 195.18-25Q194.43-19.9 193.91-16.55 193.38-13.2 193.08-11.18 192.78-9.15 192.63-8.05 192.48-6.95 192.43-6.4 192.38-5.85 192.38-5.45L192.38-5.45Q192.38-4.8 192.63-4.23 192.88-3.65 193.63-3.65L193.63-3.65Q194.13-3.65 194.83-3.85 195.53-4.05 196.03-4.25L196.03-4.25 196.88-1.1Q195.78-0.4 194.33 0.03 192.88 0.45 191.58 0.45L191.58 0.45Q190.08 0.45 188.93-0.53 187.78-1.5 187.48-2.95L187.48-2.95 187.28-2.95Q185.83-1 183.86-0.2 181.88 0.6 180.28 0.6L180.28 0.6Q177.38 0.6 175.56-0.88 173.73-2.35 172.88-4.78 172.03-7.2 172.03-10.05L172.03-10.05Q172.03-12.8 172.81-15.53 173.58-18.25 175.16-20.5 176.73-22.75 179.11-24.1 181.48-25.45 184.68-25.45L184.68-25.45Q185.98-25.45 187.96-24.8 189.93-24.15 191.28-22.5L191.28-22.5 191.28-18.25Q187.88-21.35 184.98-21.35L184.98-21.35Q183.38-21.35 182.08-20.58 180.78-19.8 179.83-18.32 178.88-16.85 178.38-14.8 177.88-12.75 177.88-10.2L177.88-10.2Q177.88-7.5 178.68-5.5 179.48-3.5 181.43-3.5L181.43-3.5Q183.03-3.5 184.18-4.63 185.33-5.75 186.13-7.65 186.93-9.55 187.48-11.9 188.03-14.25 188.38-16.7L188.38-16.7 188.93-20.35ZM204.78-31.65L209.18-31.65Q208.73-29.95 208.33-28.25 207.93-26.55 207.63-24.85L207.63-24.85 213.38-24.85 212.03-20.7 207.03-20.7 205.23-6.95Q205.18-6.6 205.16-6.25 205.13-5.9 205.13-5.55L205.13-5.55Q205.13-4.75 205.46-4.17 205.78-3.6 206.78-3.6L206.78-3.6Q207.73-3.6 208.68-3.75 209.63-3.9 210.53-4.1L210.53-4.1 211.08-0.65Q210.18-0.35 208.98-0.1 207.78 0.15 206.58 0.33 205.38 0.5 204.38 0.5L204.38 0.5Q202.48 0.5 201.33-0.03 200.18-0.55 199.68-1.6 199.18-2.65 199.18-4.1L199.18-4.1Q199.18-4.5 199.23-4.93 199.28-5.35 199.33-5.8L199.33-5.8 201.33-20.7 197.88-20.7 198.43-24.85Q200.33-24.85 201.43-25.48 202.53-26.1 203.28-27.58 204.03-29.05 204.78-31.65L204.78-31.65ZM227.08-25.5L227.08-25.5Q229.23-25.5 231.03-24.83 232.83-24.15 233.9-22.78 234.98-21.4 234.98-19.2L234.98-19.2Q234.98-17.95 234.28-16.3 233.58-14.65 231.78-13.1 229.98-11.55 226.78-10.58 223.58-9.6 218.63-9.7L218.63-9.7 218.63-13.85Q221.33-13.85 223.28-14.35 225.23-14.85 226.45-15.68 227.68-16.5 228.25-17.48 228.83-18.45 228.83-19.35L228.83-19.35Q228.83-20.2 228.28-20.75 227.73-21.3 226.63-21.3L226.63-21.3Q224.83-21.3 223.45-20.43 222.08-19.55 221.15-18.05 220.23-16.55 219.75-14.75 219.28-12.95 219.28-11.05L219.28-11.05Q219.28-7.25 220.85-5.53 222.43-3.8 225.03-3.8L225.03-3.8Q226.63-3.8 228.53-4.4 230.43-5 232.43-6.1L232.43-6.1 234.18-2.7Q234.18-2.7 233.5-2.2 232.83-1.7 231.53-1.05 230.23-0.4 228.4 0.1 226.58 0.6 224.28 0.6L224.28 0.6Q220.38 0.6 218-0.85 215.63-2.3 214.53-4.78 213.43-7.25 213.43-10.2L213.43-10.2Q213.43-13.05 214.35-15.78 215.28-18.5 217.03-20.7 218.78-22.9 221.33-24.2 223.88-25.5 227.08-25.5Z" opacity="1" transform="matrix(1,0,0,1,0,0)" fill="#000000" class="wordmark-text-0" data-fill-palette-color="primary" id="text-0"></path></svg></g></svg></g></svg></g></svg></g><g><svg viewBox="0 0 75.96650079009181 91.15980094811017" height="91.15980094811017" width="75.96650079009181"><g><svg xmlns="http://www.w3.org/2000/svg" xmlns:xlink="http://www.w3.org/1999/xlink" version="1.1" x="0" y="0" viewBox="12.5 5 75 90" enable-background="new 0 0 100 100" xml:space="preserve" height="91.15980094811017" width="75.96650079009181" class="icon-icon-0" data-fill-palette-color="accent" id="icon-0"><path d="M81.944 16.668C74.999 16.668 62.5 15.001 50 5 40 15 26.667 16.668 18.889 16.668 15 16.668 12.5 16.25 12.5 16.25v21.475C12.5 82.725 50 95 50 95s37.5-12.275 37.5-57.275V16.25C87.5 16.25 85.417 16.668 81.944 16.668zM45.313 65L29.375 48.125l4.688-5.625 11.25 7.969L68.75 33.125l4.219 3.75L45.313 65z" fill="#000000" data-fill-palette-color="accent"></path></svg></g></svg></g></svg></g><defs></defs></svg><rect width="395.52" height="70.89460510626034" fill="none" stroke="none" visibility="hidden"></rect></g></svg></g></svg>